PathFileType	4	(X/Y/Z)	/Users/niels/Desktop/University/Third Semester/Perception and Action/Exam/Gymnastics Motion Tracking/Code for Gym Tracking/Analyzed Data/Webcam_Backflip/id1_5_baseline_Sports2D/id1_5_baseline_Sports2D_px_person00.trc
DataRate	CameraRate	NumFrames	NumMarkers	Units	OrigDataRate	OrigDataStartFrame	OrigNumFrames
29.87551867219917	29.87551867219917	7	22	m	29.87551867219917	180	241
Frame#	Time	Hip			RHip			RKnee			RAnkle			RBigToe			RSmallToe			RHeel			LHip			LKnee			LAnkle			LBigToe			LSmallToe			LHeel			Neck			Head			Nose			RShoulder			RElbow			RWrist			LShoulder			LElbow			LWrist		
		X1	Y1	Z1	X2	Y2	Z2	X3	Y3	Z3	X4	Y4	Z4	X5	Y5	Z5	X6	Y6	Z6	X7	Y7	Z7	X8	Y8	Z8	X9	Y9	Z9	X10	Y10	Z10	X11	Y11	Z11	X12	Y12	Z12	X13	Y13	Z13	X14	Y14	Z14	X15	Y15	Z15	X16	Y16	Z16	X17	Y17	Z17	X18	Y18	Z18	X19	Y19	Z19	X20	Y20	Z20	X21	Y21	Z21	X22	Y22	Z22
180	6.025	0.9269423191430325	-0.5811999634598297	0.0	0.91473438828313	-0.5820769644515776	0.0	0.9162549603259517	-0.6831280332572541	0.0	0.8985446717517126	-0.795616705440245	0.0	0.9379446291102806	-0.8225304668755828	0.0	0.9285598397753152	-0.8250465054070055	0.0	0.8911712380331096	-0.8151313721983084	0.0	0.9390035397093407	-0.5819045938212148	0.0	0.9302647449662079	-0.6836771972031338	0.0	0.9052434823486993	-0.7911789658333178	0.0	0.9438047151887283	-0.8174374667558982	0.0	0.9420781431821171	-0.8133964595158457	0.0	0.8958938460523055	-0.807213513193836	0.0	0.92840574844252	-0.4202846309178762	0.0	0.9442680908397677	-0.3502349620101724	0.0	0.9412733871707392	-0.3913995600659977	0.0	0.8923838697357325	-0.4467011828164308	0.0	0.8720585149696651	-0.5170085472204545	0.0	0.8946526851944608	-0.5861994656913165	0.0	0.9484277468896792	-0.44817076808906403	0.0	0.9474800872642123	-0.5178505442445898	0.0	0.9768345397886087	-0.5787532861727395	0.0
181	6.058472222222222	0.9267462478935791	-0.5815490681517957	0.0	0.9146584758011467	-0.5825249421593214	0.0	0.9163074108546098	-0.6825765510984272	0.0	0.8983531952283157	-0.7957607728707273	0.0	0.9384351900522417	-0.8224565022299664	0.0	0.9290351212565787	-0.8248338287338784	0.0	0.8907381667040911	-0.8151375722931037	0.0	0.9390150354550475	-0.5824729591015203	0.0	0.9298176287627102	-0.6830961720984061	0.0	0.9050603387669297	-0.7910558827231224	0.0	0.9438552286549262	-0.8174092518270504	0.0	0.9415191782709439	-0.8132407090327092	0.0	0.8958834473997737	-0.8072340036248216	0.0	0.928539117065549	-0.4199274207850231	0.0	0.9438416850986902	-0.35024581652048536	0.0	0.9411803587300236	-0.3912469673366605	0.0	0.8926323007353436	-0.4463600600319919	0.0	0.8712954203066465	-0.5162508368083644	0.0	0.8937935050944439	-0.5853218084128492	0.0	0.9489349065117959	-0.4480266027998302	0.0	0.9485180990313833	-0.5172941810035634	0.0	0.9802822119109927	-0.5773515465174297	0.0
182	6.091944444444445	0.9263792191489911	-0.5828242729526352	0.0	0.9143635657943453	-0.5836772815223951	0.0	0.915723053696158	-0.6829410289095752	0.0	0.8978399163144052	-0.7967939502621888	0.0	0.9382776842254432	-0.8230556436289626	0.0	0.9289601014846146	-0.8253412275884695	0.0	0.8900955646716345	-0.8158958487230673	0.0	0.9390898988952721	-0.5837313659336816	0.0	0.9292633518934984	-0.6834526239396008	0.0	0.9049294074861525	-0.7916509756556859	0.0	0.9438700514185678	-0.818097819661349	0.0	0.9410674893869392	-0.8137262974504761	0.0	0.8960504914006883	-0.8080217202073503	0.0	0.9285629908775025	-0.42059338220136977	0.0	0.9433976809822638	-0.3511919698445591	0.0	0.9411020170332604	-0.3920296779187349	0.0	0.8928323063642121	-0.4471887002288679	0.0	0.8707586637971467	-0.5167623963649718	0.0	0.893183979680514	-0.5854334409357649	0.0	0.9493816287322263	-0.4489037652295836	0.0	0.9494039781154039	-0.5178665506600378	0.0	0.9832579408496438	-0.5771774376976768	0.0
183	6.125416666666667	0.9258082034251229	-0.5848955200981807	0.0	0.9138322803209277	-0.5854077309205205	0.0	0.9144653512128459	-0.6842033344425494	0.0	0.8970920020347011	-0.7986041713094163	0.0	0.9374145281645584	-0.8243685599108931	0.0	0.9283935156082612	-0.8266259980180414	0.0	0.889466730567381	-0.817392408732401	0.0	0.9391104770532149	-0.585468912420411	0.0	0.9285372452761632	-0.6847139567582979	0.0	0.9048359878509771	-0.7929695744129198	0.0	0.9438303271336244	-0.8195599282711589	0.0	0.9408091375385056	-0.814923662267972	0.0	0.8963823756280376	-0.8095438613968271	0.0	0.9284780245506972	-0.4221954879747963	0.0	0.9430207072371395	-0.3529148059400018	0.0	0.9409617706457368	-0.3936501136325476	0.0	0.8929085648040224	-0.44909033207285903	0.0	0.8705540272906995	-0.5185175768549338	0.0	0.8928302147378391	-0.5865479685616197	0.0	0.9497769936040614	-0.4507626065404813	0.0	0.9500765596447668	-0.5195251050148224	0.0	0.9856899552173243	-0.5782511625255251	0.0
184	6.158888888888889	0.9250793138899758	-0.5875854488936556	0.0	0.9131680805004583	-0.5876062820186515	0.0	0.9127886542964303	-0.6862727172438662	0.0	0.8962836666109573	-0.8009956649561886	0.0	0.9361246971260867	-0.826296009716732	0.0	0.9276759190778645	-0.8285783774307218	0.0	0.8889861711893062	-0.8195095999854589	0.0	0.9389809961833364	-0.5875921048386872	0.0	0.9276401298318748	-0.686799192429598	0.0	0.90471859212551	-0.7949894217854654	0.0	0.9437572342241338	-0.8216823827729187	0.0	0.9407664388712601	-0.8168068318590576	0.0	0.8967448375763748	-0.8117211985022166	0.0	0.9283127339024908	-0.4245467102259552	0.0	0.9427133781921468	-0.3552913093088226	0.0	0.9406721727693365	-0.3959718298946863	0.0	0.8928455678416612	-0.4518278506887458	0.0	0.8707119532961004	-0.5213470003884846	0.0	0.8927747763373423	-0.5886527647802801	0.0	0.9500927366127282	-0.45341628173358284	0.0	0.950486848524975	-0.5220724884508672	0.0	0.9874844058826584	-0.5804880055482985	0.0
185	6.192361111111111	0.9243353323143857	-0.5906713164954758	0.0	0.9125532674227741	-0.5901758664941619	0.0	0.9111138208000902	-0.6889496382115936	0.0	0.8955864249117648	-0.8037055659109984	0.0	0.9348459550135797	-0.8286150134365367	0.0	0.9271508797070867	-0.830952630173658	0.0	0.888671655066491	-0.8220390294974287	0.0	0.9386759275162946	-0.5900867448930763	0.0	0.9266310188119943	-0.6895260340532556	0.0	0.9044967410449435	-0.7975890986424656	0.0	0.9436745617651727	-0.8241817640433601	0.0	0.9408649491027071	-0.8192015007196117	0.0	0.8969312574360806	-0.8143827860741175	0.0	0.9281051807704533	-0.42740497508243275	0.0	0.9423949581230404	-0.3582014425868295	0.0	0.9402081310992982	-0.39880933632376686	0.0	0.8926790853597486	-0.45509373889116866	0.0	0.8712005396987826	-0.5249294389161796	0.0	0.8930463127859147	-0.5916846075282465	0.0	0.9502737326508452	-0.4565673648459655	0.0	0.950623302141534	-0.5252030945208291	0.0	0.988493162885355	-0.5836615162565952	0.0
186	6.225833333333333	0.9237333816883979	-0.5938763276149853	0.0	0.9121214759049833	-0.5929500802107908	0.0	0.9097793384316573	-0.6919278476014388	0.0	0.8950925611410262	-0.8064767760012631	0.0	0.9339110144099793	-0.8310549260012331	0.0	0.9269243845572969	-0.8334569475765254	0.0	0.8884897427290096	-0.8247615778979063	0.0	0.9382151952872685	-0.592839933257258	0.0	0.9255890921241529	-0.6925820765213974	0.0	0.9041201229972348	-0.8005209580029271	0.0	0.9435988188584543	-0.8267344430901936	0.0	0.9409758193216704	-0.8218107099756965	0.0	0.8967715911941432	-0.8172808412238574	0.0	0.9278750845018813	-0.43051990803256235	0.0	0.9419908927111418	-0.3614439408448418	0.0	0.9396307215689735	-0.4019161614295341	0.0	0.8924508315654615	-0.45856968779760165	0.0	0.8719472792529178	-0.528865377982253	0.0	0.8936061892600439	-0.595430093496143	0.0	0.950256171885391	-0.4598842730691527	0.0	0.9505153820424118	-0.5285908236362751	0.0	0.9885475566443469	-0.5874520951822597	0.0
